<?xml version="1.0" standalone="no"?>
<!DOCTYPE svg PUBLIC "-//W3C//DTD SVG 20010904//EN"
 "http://www.w3.org/TR/2001/REC-SVG-20010904/DTD/svg10.dtd">
<svg version="1.0" xmlns="http://www.w3.org/2000/svg"
 width="1650.000000pt" height="1650.000000pt" viewBox="0 0 1650.000000 1650.000000"
 preserveAspectRatio="xMidYMid meet">

<g transform="translate(0.000000,1650.000000) scale(0.100000,-0.100000)"
fill="#000000" stroke="none">
<path d="M7920 16423 c-546 -24 -1102 -103 -1631 -233 -660 -163 -1425 -464
-1989 -785 -761 -432 -1351 -891 -1966 -1527 -859 -889 -1541 -2057 -1910
-3271 -128 -422 -244 -966 -289 -1357 -151 -1307 -29 -2523 371 -3702 181
-532 442 -1097 726 -1566 474 -784 1032 -1450 1688 -2013 1004 -861 2155
-1451 3444 -1764 182 -44 501 -107 609 -120 l57 -7 0 2960 c0 2828 -1 2961
-18 2966 -19 6 -1351 26 -1775 26 l-259 0 7 143 c4 78 10 565 14 1082 l6 940
1010 5 1010 5 1 780 c2 948 6 1087 50 1435 58 468 212 955 416 1324 146 263
369 515 672 762 238 193 769 406 1194 479 153 26 358 35 927 42 659 7 952 -6
1389 -63 96 -13 134 -22 148 -36 17 -17 18 -59 18 -927 l0 -909 -42 -6 c-24
-3 -335 -8 -693 -11 -602 -6 -658 -8 -760 -27 -371 -70 -565 -204 -743 -515
-68 -118 -96 -192 -147 -388 -88 -331 -100 -501 -91 -1304 3 -338 8 -616 9
-618 8 -8 1117 -23 1710 -23 441 0 675 -4 688 -10 12 -7 19 -21 19 -42 0 -52
-200 -1392 -250 -1673 -10 -60 -26 -170 -35 -244 -9 -81 -23 -151 -35 -179
l-20 -45 -128 6 c-70 4 -532 10 -1028 13 l-901 7 -8 -234 c-10 -304 -22 -5711
-13 -5723 13 -17 476 61 771 130 545 126 1238 379 1777 649 303 152 740 416
1062 642 112 78 448 345 603 478 824 706 1513 1597 1991 2570 354 722 559
1332 713 2126 54 276 88 542 117 919 21 266 24 925 6 1175 -106 1416 -509
2651 -1256 3845 -521 832 -1219 1587 -2031 2196 -379 285 -841 568 -1260 774
-917 451 -1893 726 -2885 814 -339 31 -765 42 -1060 29z"/>
</g>
</svg>
